<?xml version="1.0" encoding="UTF-8" standalone="no"?>
<!DOCTYPE svg PUBLIC "-//W3C//DTD SVG 1.1//EN"
 "http://www.w3.org/Graphics/SVG/1.1/DTD/svg11.dtd">
<!-- Generated by graphviz version 2.26.3 (20100126.1600)
 -->
<!-- Title: G Pages: 1 -->
<svg width="1230pt" height="1246pt"
 viewBox="0.00 0.00 1230.00 1246.00" xmlns="http://www.w3.org/2000/svg" xmlns:xlink="http://www.w3.org/1999/xlink">
<g id="graph1" class="graph" transform="scale(1 1) rotate(0) translate(4 1242)">
<title>G</title>
<polygon fill="white" stroke="white" points="-4,5 -4,-1242 1227,-1242 1227,5 -4,5"/>
<g id="graph2" class="cluster"><title>cluster_default</title>
<polyline fill="none" stroke="none" points="20,-260 1202,-260 "/>
<path fill="none" stroke="none" d="M1202,-260C1208,-260 1214,-266 1214,-272"/>
<polyline fill="none" stroke="none" points="1214,-272 1214,-1218 "/>
<path fill="none" stroke="none" d="M1214,-1218C1214,-1224 1208,-1230 1202,-1230"/>
<polyline fill="none" stroke="none" points="1202,-1230 20,-1230 "/>
<path fill="none" stroke="none" d="M20,-1230C14,-1230 8,-1224 8,-1218"/>
<polyline fill="none" stroke="none" points="8,-1218 8,-272 "/>
<path fill="none" stroke="none" d="M8,-272C8,-266 14,-260 20,-260"/>
</g>
<!-- \\Tx_PhpParser_Service_Printer -->
<g id="node2" class="node"><title>\\Tx_PhpParser_Service_Printer</title>
<a xlink:href="Service.Printer.html" xlink:title="Tx_PhpParser_Service_Printer" target="_parent">
<polygon fill="none" stroke="black" points="1125,-736 919,-736 919,-700 1125,-700 1125,-736"/>
<text text-anchor="middle" x="1022" y="-715.1" font-family="Courier,monospace" font-size="11.00">Tx_PhpParser_Service_Printer</text>
</a>
</g>
<!-- \\PHPParser_PrettyPrinter_TYPO3CGL -->
<g id="node29" class="node"><title>\\PHPParser_PrettyPrinter_TYPO3CGL</title>
<ellipse fill="none" stroke="black" cx="571" cy="-180" rx="195.161" ry="18.3848"/>
<text text-anchor="middle" x="571" y="-176.4" font-family="Times Roman,serif" font-size="14.00" fill="gray">\PHPParser_PrettyPrinter_TYPO3CGL</text>
</g>
<!-- \\Tx_PhpParser_Service_Printer&#45;&gt;\\PHPParser_PrettyPrinter_TYPO3CGL -->
<g id="edge3" class="edge"><title>\\Tx_PhpParser_Service_Printer&#45;&gt;\\PHPParser_PrettyPrinter_TYPO3CGL</title>
<path fill="none" stroke="black" d="M918.575,-724.844C889.024,-721.473 859.139,-712.097 838,-691 684.068,-537.372 920.554,-360.003 766,-207 761.023,-202.073 755.593,-197.761 749.815,-193.999"/>
<polygon fill="none" stroke="black" points="751.504,-190.932 741.112,-188.871 747.951,-196.963 751.504,-190.932"/>
</g>
<!-- \\Tx_PhpParser_Service_Parser -->
<g id="node3" class="node"><title>\\Tx_PhpParser_Service_Parser</title>
<a xlink:href="Service.Parser.html" xlink:title="Tx_PhpParser_Service_Parser" target="_parent">
<polygon fill="none" stroke="black" points="1121,-628 923,-628 923,-592 1121,-592 1121,-628"/>
<text text-anchor="middle" x="1022" y="-607.1" font-family="Courier,monospace" font-size="11.00">Tx_PhpParser_Service_Parser</text>
</a>
</g>
<!-- \\PHPParser_Parser -->
<g id="node31" class="node"><title>\\PHPParser_Parser</title>
<ellipse fill="none" stroke="black" cx="571" cy="-126" rx="101.823" ry="18.3848"/>
<text text-anchor="middle" x="571" y="-122.4" font-family="Times Roman,serif" font-size="14.00" fill="gray">\PHPParser_Parser</text>
</g>
<!-- \\Tx_PhpParser_Service_Parser&#45;&gt;\\PHPParser_Parser -->
<g id="edge5" class="edge"><title>\\Tx_PhpParser_Service_Parser&#45;&gt;\\PHPParser_Parser</title>
<path fill="none" stroke="black" d="M922.161,-616.966C891.546,-613.915 860.137,-604.694 838,-583 699.606,-447.374 904.943,-288.064 766,-153 740.461,-128.174 703.4,-119.086 668.431,-117.037"/>
<polygon fill="none" stroke="black" points="668.281,-113.528 658.149,-116.628 668.002,-120.523 668.281,-113.528"/>
</g>
<!-- \\Tx_PhpParser_Parser_Traverser -->
<g id="node4" class="node"><title>\\Tx_PhpParser_Parser_Traverser</title>
<a xlink:href="Parser.Traverser.html" xlink:title="Tx_PhpParser_Parser_Traverser" target="_parent">
<polygon fill="none" stroke="black" points="1128,-844 916,-844 916,-808 1128,-808 1128,-844"/>
<text text-anchor="middle" x="1022" y="-823.1" font-family="Courier,monospace" font-size="11.00">Tx_PhpParser_Parser_Traverser</text>
</a>
</g>
<!-- \\Tx_PhpParser_Parser_TraverserInterface -->
<g id="node13" class="node"><title>\\Tx_PhpParser_Parser_TraverserInterface</title>
<a xlink:href="Parser.TraverserInterface.html" xlink:title="Tx_PhpParser_Parser_TraverserInterface" target="_parent">
<polygon fill="none" stroke="black" points="707,-844 435,-844 435,-808 707,-808 707,-844"/>
<text text-anchor="middle" x="571" y="-823.1" font-family="Courier,monospace" font-size="11.00">Tx_PhpParser_Parser_TraverserInterface</text>
</a>
</g>
<!-- \\Tx_PhpParser_Parser_Traverser&#45;&gt;\\Tx_PhpParser_Parser_TraverserInterface -->
<g id="edge37" class="edge"><title>\\Tx_PhpParser_Parser_Traverser&#45;&gt;\\Tx_PhpParser_Parser_TraverserInterface</title>
<path fill="none" stroke="black" stroke-dasharray="1,5" d="M915.976,-826C856.903,-826 782.45,-826 717.845,-826"/>
<polygon fill="none" stroke="black" points="717.565,-822.5 707.565,-826 717.564,-829.5 717.565,-822.5"/>
</g>
<!-- \\PHPParser_NodeTraverser -->
<g id="node33" class="node"><title>\\PHPParser_NodeTraverser</title>
<ellipse fill="none" stroke="black" cx="571" cy="-234" rx="140.922" ry="18.3848"/>
<text text-anchor="middle" x="571" y="-230.4" font-family="Times Roman,serif" font-size="14.00" fill="gray">\PHPParser_NodeTraverser</text>
</g>
<!-- \\Tx_PhpParser_Parser_Traverser&#45;&gt;\\PHPParser_NodeTraverser -->
<g id="edge7" class="edge"><title>\\Tx_PhpParser_Parser_Traverser&#45;&gt;\\PHPParser_NodeTraverser</title>
<path fill="none" stroke="black" d="M915.973,-832.762C887.203,-829.168 858.404,-819.689 838,-799 667.056,-625.668 939.811,-426.457 766,-256 745.493,-235.888 717.343,-226.637 688.809,-223.275"/>
<polygon fill="none" stroke="black" points="688.996,-219.777 678.712,-222.323 688.339,-226.746 688.996,-219.777"/>
</g>
<!-- \\Tx_PhpParser_Parser_DocCommentParser -->
<g id="node5" class="node"><title>\\Tx_PhpParser_Parser_DocCommentParser</title>
<a xlink:href="Parser.DocCommentParser.html" xlink:title="Tx_PhpParser_Parser_DocCommentParser" target="_parent">
<polygon fill="none" stroke="black" points="1152,-1060 892,-1060 892,-1024 1152,-1024 1152,-1060"/>
<text text-anchor="middle" x="1022" y="-1039.1" font-family="Courier,monospace" font-size="11.00">Tx_PhpParser_Parser_DocCommentParser</text>
</a>
</g>
<!-- \\Tx_PhpParser_Parser_ClassFactoryInterface -->
<g id="node6" class="node"><title>\\Tx_PhpParser_Parser_ClassFactoryInterface</title>
<a xlink:href="Parser.ClassFactoryInterface.html" xlink:title="Tx_PhpParser_Parser_ClassFactoryInterface" target="_parent">
<polygon fill="none" stroke="black" points="717,-1222 425,-1222 425,-1186 717,-1186 717,-1222"/>
<text text-anchor="middle" x="571" y="-1201.1" font-family="Courier,monospace" font-size="11.00">Tx_PhpParser_Parser_ClassFactoryInterface</text>
</a>
</g>
<!-- \\Tx_PhpParser_Parser_NodeFactory -->
<g id="node7" class="node"><title>\\Tx_PhpParser_Parser_NodeFactory</title>
<a xlink:href="Parser.NodeFactory.html" xlink:title="Tx_PhpParser_Parser_NodeFactory" target="_parent">
<polygon fill="none" stroke="black" points="1135,-1006 909,-1006 909,-970 1135,-970 1135,-1006"/>
<text text-anchor="middle" x="1022" y="-985.1" font-family="Courier,monospace" font-size="11.00">Tx_PhpParser_Parser_NodeFactory</text>
</a>
</g>
<!-- \\Tx_PhpParser_Parser_Visitor_ReplaceVisitor -->
<g id="node8" class="node"><title>\\Tx_PhpParser_Parser_Visitor_ReplaceVisitor</title>
<a xlink:href="Parser.Visitor.ReplaceVisitor.html" xlink:title="Tx_PhpParser_Parser_Visitor_ReplaceVisitor" target="_parent">
<polygon fill="none" stroke="black" points="1172,-466 872,-466 872,-430 1172,-430 1172,-466"/>
<text text-anchor="middle" x="1022" y="-445.1" font-family="Courier,monospace" font-size="11.00">Tx_PhpParser_Parser_Visitor_ReplaceVisitor</text>
</a>
</g>
<!-- \\PHPParser_NodeVisitorAbstract -->
<g id="node35" class="node"><title>\\PHPParser_NodeVisitorAbstract</title>
<ellipse fill="none" stroke="black" cx="571" cy="-72" rx="167.792" ry="18.3848"/>
<text text-anchor="middle" x="571" y="-68.4" font-family="Times Roman,serif" font-size="14.00" fill="gray">\PHPParser_NodeVisitorAbstract</text>
</g>
<!-- \\Tx_PhpParser_Parser_Visitor_ReplaceVisitor&#45;&gt;\\PHPParser_NodeVisitorAbstract -->
<g id="edge9" class="edge"><title>\\Tx_PhpParser_Parser_Visitor_ReplaceVisitor&#45;&gt;\\PHPParser_NodeVisitorAbstract</title>
<path fill="none" stroke="black" d="M871.621,-442.099C859.291,-436.986 847.82,-430.116 838,-421 730.527,-321.228 873.877,-198.335 766,-99 758.457,-92.0547 750.005,-86.3664 740.959,-81.7359"/>
<polygon fill="none" stroke="black" points="742.271,-78.4863 731.727,-77.4506 739.324,-84.8357 742.271,-78.4863"/>
</g>
<!-- \\Tx_PhpParser_Parser_Visitor_FileVisitor -->
<g id="node9" class="node"><title>\\Tx_PhpParser_Parser_Visitor_FileVisitor</title>
<a xlink:href="Parser.Visitor.FileVisitor.html" xlink:title="Tx_PhpParser_Parser_Visitor_FileVisitor" target="_parent">
<polygon fill="none" stroke="black" points="1162,-574 882,-574 882,-538 1162,-538 1162,-574"/>
<text text-anchor="middle" x="1022" y="-553.1" font-family="Courier,monospace" font-size="11.00">Tx_PhpParser_Parser_Visitor_FileVisitor</text>
</a>
</g>
<!-- \\Tx_PhpParser_Parser_Visitor_FileVisitorInterface -->
<g id="node10" class="node"><title>\\Tx_PhpParser_Parser_Visitor_FileVisitorInterface</title>
<a xlink:href="Parser.Visitor.FileVisitorInterface.html" xlink:title="Tx_PhpParser_Parser_Visitor_FileVisitorInterface" target="_parent">
<polygon fill="none" stroke="black" points="741,-574 401,-574 401,-538 741,-538 741,-574"/>
<text text-anchor="middle" x="571" y="-553.1" font-family="Courier,monospace" font-size="11.00">Tx_PhpParser_Parser_Visitor_FileVisitorInterface</text>
</a>
</g>
<!-- \\Tx_PhpParser_Parser_Visitor_FileVisitor&#45;&gt;\\Tx_PhpParser_Parser_Visitor_FileVisitorInterface -->
<g id="edge39" class="edge"><title>\\Tx_PhpParser_Parser_Visitor_FileVisitor&#45;&gt;\\Tx_PhpParser_Parser_Visitor_FileVisitorInterface</title>
<path fill="none" stroke="black" stroke-dasharray="1,5" d="M881.773,-556C840.632,-556 795.049,-556 751.758,-556"/>
<polygon fill="none" stroke="black" points="751.687,-552.5 741.687,-556 751.687,-559.5 751.687,-552.5"/>
</g>
<!-- \\Tx_PhpParser_Parser_Visitor_FileVisitor&#45;&gt;\\PHPParser_NodeVisitorAbstract -->
<g id="edge11" class="edge"><title>\\Tx_PhpParser_Parser_Visitor_FileVisitor&#45;&gt;\\PHPParser_NodeVisitorAbstract</title>
<path fill="none" stroke="black" d="M881.907,-554.739C865.553,-549.306 850.337,-541.09 838,-529 699.606,-393.374 904.943,-234.064 766,-99 758.74,-91.9426 750.549,-86.1571 741.739,-81.4435"/>
<polygon fill="none" stroke="black" points="743.261,-78.2915 732.735,-77.0799 740.208,-84.5907 743.261,-78.2915"/>
</g>
<!-- \\Tx_PhpParser_Parser_Visitor_ReplaceClassNamesVisitor -->
<g id="node11" class="node"><title>\\Tx_PhpParser_Parser_Visitor_ReplaceClassNamesVisitor</title>
<a xlink:href="Parser.Visitor.ReplaceClassNamesVisitor.html" xlink:title="Tx_PhpParser_Parser_Visitor_ReplaceClassNamesVisitor" target="_parent">
<polygon fill="none" stroke="black" points="1206,-520 838,-520 838,-484 1206,-484 1206,-520"/>
<text text-anchor="middle" x="1022" y="-499.1" font-family="Courier,monospace" font-size="11.00">Tx_PhpParser_Parser_Visitor_ReplaceClassNamesVisitor</text>
</a>
</g>
<!-- \\Tx_PhpParser_Parser_Visitor_ReplaceClassNamesVisitor&#45;&gt;\\PHPParser_NodeVisitorAbstract -->
<g id="edge13" class="edge"><title>\\Tx_PhpParser_Parser_Visitor_ReplaceClassNamesVisitor&#45;&gt;\\PHPParser_NodeVisitorAbstract</title>
<path fill="none" stroke="black" d="M848.732,-483.894C844.97,-481.195 841.382,-478.238 838,-475 715.1,-357.333 889.377,-216.168 766,-99 758.658,-92.0277 750.404,-86.3075 741.548,-81.643"/>
<polygon fill="none" stroke="black" points="743.034,-78.4741 732.501,-77.3232 740.017,-84.7908 743.034,-78.4741"/>
</g>
<!-- \\Tx_PhpParser_Parser_Utility_NodeConverter -->
<g id="node12" class="node"><title>\\Tx_PhpParser_Parser_Utility_NodeConverter</title>
<a xlink:href="Parser.Utility.NodeConverter.html" xlink:title="Tx_PhpParser_Parser_Utility_NodeConverter" target="_parent">
<polygon fill="none" stroke="black" points="1168,-790 876,-790 876,-754 1168,-754 1168,-790"/>
<text text-anchor="middle" x="1022" y="-769.1" font-family="Courier,monospace" font-size="11.00">Tx_PhpParser_Parser_Utility_NodeConverter</text>
</a>
</g>
<!-- \\Tx_PhpParser_Parser_ClassFactory -->
<g id="node14" class="node"><title>\\Tx_PhpParser_Parser_ClassFactory</title>
<a xlink:href="Parser.ClassFactory.html" xlink:title="Tx_PhpParser_Parser_ClassFactory" target="_parent">
<polygon fill="none" stroke="black" points="1138,-1222 906,-1222 906,-1186 1138,-1186 1138,-1222"/>
<text text-anchor="middle" x="1022" y="-1201.1" font-family="Courier,monospace" font-size="11.00">Tx_PhpParser_Parser_ClassFactory</text>
</a>
</g>
<!-- \\Tx_PhpParser_Parser_ClassFactory&#45;&gt;\\Tx_PhpParser_Parser_ClassFactoryInterface -->
<g id="edge41" class="edge"><title>\\Tx_PhpParser_Parser_ClassFactory&#45;&gt;\\Tx_PhpParser_Parser_ClassFactoryInterface</title>
<path fill="none" stroke="black" stroke-dasharray="1,5" d="M905.27,-1204C851.114,-1204 785.953,-1204 727.601,-1204"/>
<polygon fill="none" stroke="black" points="727.545,-1200.5 717.545,-1204 727.545,-1207.5 727.545,-1200.5"/>
</g>
<!-- \\Tx_PhpParser_AutoLoader -->
<g id="node15" class="node"><title>\\Tx_PhpParser_AutoLoader</title>
<a xlink:href="AutoLoader.html" xlink:title="Tx_PhpParser_AutoLoader" target="_parent">
<polygon fill="none" stroke="black" points="1108,-682 936,-682 936,-646 1108,-646 1108,-682"/>
<text text-anchor="middle" x="1022" y="-661.1" font-family="Courier,monospace" font-size="11.00">Tx_PhpParser_AutoLoader</text>
</a>
</g>
<!-- \\Tx_PhpParser_Exception_FileNotFoundException -->
<g id="node16" class="node"><title>\\Tx_PhpParser_Exception_FileNotFoundException</title>
<a xlink:href="Exception.FileNotFoundException.html" xlink:title="Tx_PhpParser_Exception_FileNotFoundException" target="_parent">
<polygon fill="none" stroke="black" points="1179,-412 865,-412 865,-376 1179,-376 1179,-412"/>
<text text-anchor="middle" x="1022" y="-391.1" font-family="Courier,monospace" font-size="11.00">Tx_PhpParser_Exception_FileNotFoundException</text>
</a>
</g>
<!-- \\Exception -->
<g id="node39" class="node"><title>\\Exception</title>
<ellipse fill="none" stroke="black" cx="571" cy="-18" rx="62.9325" ry="18.3848"/>
<text text-anchor="middle" x="571" y="-14.4" font-family="Times Roman,serif" font-size="14.00" fill="gray">\Exception</text>
</g>
<!-- \\Tx_PhpParser_Exception_FileNotFoundException&#45;&gt;\\Exception -->
<g id="edge15" class="edge"><title>\\Tx_PhpParser_Exception_FileNotFoundException&#45;&gt;\\Exception</title>
<path fill="none" stroke="black" d="M864.592,-384.943C854.93,-380.254 845.927,-374.359 838,-367 730.527,-267.228 873.877,-144.335 766,-45 732.089,-13.7742 679.781,-7.95727 637.875,-9.44294"/>
<polygon fill="none" stroke="black" points="637.55,-5.95469 627.737,-9.94922 637.9,-12.946 637.55,-5.95469"/>
</g>
<!-- \\Tx_PhpParser_Exception_SyntaxErrorException -->
<g id="node17" class="node"><title>\\Tx_PhpParser_Exception_SyntaxErrorException</title>
<a xlink:href="Exception.SyntaxErrorException.html" xlink:title="Tx_PhpParser_Exception_SyntaxErrorException" target="_parent">
<polygon fill="none" stroke="black" points="1175,-358 869,-358 869,-322 1175,-322 1175,-358"/>
<text text-anchor="middle" x="1022" y="-337.1" font-family="Courier,monospace" font-size="11.00">Tx_PhpParser_Exception_SyntaxErrorException</text>
</a>
</g>
<!-- \\Tx_PhpParser_Exception_SyntaxErrorException&#45;&gt;\\Exception -->
<g id="edge17" class="edge"><title>\\Tx_PhpParser_Exception_SyntaxErrorException&#45;&gt;\\Exception</title>
<path fill="none" stroke="black" d="M868.458,-332.155C857.39,-327.316 847.046,-321.047 838,-313 745.849,-231.026 858.482,-126.599 766,-45 731.67,-14.7102 679.876,-8.72674 638.294,-9.90587"/>
<polygon fill="none" stroke="black" points="638.074,-6.41196 628.232,-10.334 638.371,-13.4056 638.074,-6.41196"/>
</g>
<!-- \\Tx_PhpParser_Exception_ParseErrorException -->
<g id="node18" class="node"><title>\\Tx_PhpParser_Exception_ParseErrorException</title>
<a xlink:href="Exception.ParseErrorException.html" xlink:title="Tx_PhpParser_Exception_ParseErrorException" target="_parent">
<polygon fill="none" stroke="black" points="1172,-304 872,-304 872,-268 1172,-268 1172,-304"/>
<text text-anchor="middle" x="1022" y="-283.1" font-family="Courier,monospace" font-size="11.00">Tx_PhpParser_Exception_ParseErrorException</text>
</a>
</g>
<!-- \\Tx_PhpParser_Exception_ParseErrorException&#45;&gt;\\Exception -->
<g id="edge19" class="edge"><title>\\Tx_PhpParser_Exception_ParseErrorException&#45;&gt;\\Exception</title>
<path fill="none" stroke="black" d="M1009.25,-267.887C975.601,-221.662 879.145,-99.1549 766,-45 728.381,-26.9946 682.32,-20.0197 644.411,-17.6505"/>
<polygon fill="none" stroke="black" points="644.119,-14.1304 633.949,-17.0991 643.751,-21.1207 644.119,-14.1304"/>
</g>
<!-- \\Tx_PhpParser_Domain_Model_Class_Property -->
<g id="node19" class="node"><title>\\Tx_PhpParser_Domain_Model_Class_Property</title>
<a xlink:href="Domain.Model.Class.Property.html" xlink:title="Tx_PhpParser_Domain_Model_Class_Property" target="_parent">
<polygon fill="none" stroke="black" points="714,-1114 428,-1114 428,-1078 714,-1078 714,-1114"/>
<text text-anchor="middle" x="571" y="-1093.1" font-family="Courier,monospace" font-size="11.00">Tx_PhpParser_Domain_Model_Class_Property</text>
</a>
</g>
<!-- \\Tx_PhpParser_Domain_Model_AbstractObject -->
<g id="node23" class="node"><title>\\Tx_PhpParser_Domain_Model_AbstractObject</title>
<a xlink:href="Domain.Model.AbstractObject.html" xlink:title="Tx_PhpParser_Domain_Model_AbstractObject" target="_parent">
<polygon fill="none" stroke="black" points="303,-1033 17,-1033 17,-997 303,-997 303,-1033"/>
<text text-anchor="middle" x="160" y="-1012.1" font-family="Courier,monospace" font-size="11.00">Tx_PhpParser_Domain_Model_AbstractObject</text>
</a>
</g>
<!-- \\Tx_PhpParser_Domain_Model_Class_Property&#45;&gt;\\Tx_PhpParser_Domain_Model_AbstractObject -->
<g id="edge21" class="edge"><title>\\Tx_PhpParser_Domain_Model_Class_Property&#45;&gt;\\Tx_PhpParser_Domain_Model_AbstractObject</title>
<path fill="none" stroke="black" d="M428,-1078C410.439,-1075.26 392.777,-1072.25 376,-1069 328.395,-1059.78 275.58,-1046.63 234.091,-1035.62"/>
<polygon fill="none" stroke="black" points="234.904,-1032.21 224.34,-1033.01 233.098,-1038.97 234.904,-1032.21"/>
</g>
<!-- \\Tx_PhpParser_Domain_Model_Class_Method -->
<g id="node20" class="node"><title>\\Tx_PhpParser_Domain_Model_Class_Method</title>
<a xlink:href="Domain.Model.Class.Method.html" xlink:title="Tx_PhpParser_Domain_Model_Class_Method" target="_parent">
<polygon fill="none" stroke="black" points="1158,-898 886,-898 886,-862 1158,-862 1158,-898"/>
<text text-anchor="middle" x="1022" y="-877.1" font-family="Courier,monospace" font-size="11.00">Tx_PhpParser_Domain_Model_Class_Method</text>
</a>
</g>
<!-- \\Tx_PhpParser_Domain_Model_Function -->
<g id="node22" class="node"><title>\\Tx_PhpParser_Domain_Model_Function</title>
<a xlink:href="Domain.Model.Function.html" xlink:title="Tx_PhpParser_Domain_Model_Function" target="_parent">
<polygon fill="none" stroke="black" points="694,-925 448,-925 448,-889 694,-889 694,-925"/>
<text text-anchor="middle" x="571" y="-904.1" font-family="Courier,monospace" font-size="11.00">Tx_PhpParser_Domain_Model_Function</text>
</a>
</g>
<!-- \\Tx_PhpParser_Domain_Model_Class_Method&#45;&gt;\\Tx_PhpParser_Domain_Model_Function -->
<g id="edge23" class="edge"><title>\\Tx_PhpParser_Domain_Model_Class_Method&#45;&gt;\\Tx_PhpParser_Domain_Model_Function</title>
<path fill="none" stroke="black" d="M885.461,-888.174C827.986,-891.615 761.328,-895.606 704.215,-899.025"/>
<polygon fill="none" stroke="black" points="703.808,-895.543 694.035,-899.634 704.227,-902.53 703.808,-895.543"/>
</g>
<!-- \\Tx_PhpParser_Domain_Model_Parameter -->
<g id="node21" class="node"><title>\\Tx_PhpParser_Domain_Model_Parameter</title>
<a xlink:href="Domain.Model.Parameter.html" xlink:title="Tx_PhpParser_Domain_Model_Parameter" target="_parent">
<polygon fill="none" stroke="black" points="697,-1006 445,-1006 445,-970 697,-970 697,-1006"/>
<text text-anchor="middle" x="571" y="-985.1" font-family="Courier,monospace" font-size="11.00">Tx_PhpParser_Domain_Model_Parameter</text>
</a>
</g>
<!-- \\Tx_PhpParser_Domain_Model_Parameter&#45;&gt;\\Tx_PhpParser_Domain_Model_AbstractObject -->
<g id="edge25" class="edge"><title>\\Tx_PhpParser_Domain_Model_Parameter&#45;&gt;\\Tx_PhpParser_Domain_Model_AbstractObject</title>
<path fill="none" stroke="black" d="M444.333,-996.321C403.086,-999.031 356.844,-1002.07 313.832,-1004.89"/>
<polygon fill="none" stroke="black" points="313.593,-1001.4 303.844,-1005.55 314.052,-1008.39 313.593,-1001.4"/>
</g>
<!-- \\Tx_PhpParser_Domain_Model_Function&#45;&gt;\\Tx_PhpParser_Domain_Model_AbstractObject -->
<g id="edge27" class="edge"><title>\\Tx_PhpParser_Domain_Model_Function&#45;&gt;\\Tx_PhpParser_Domain_Model_AbstractObject</title>
<path fill="none" stroke="black" d="M502.208,-925.077C429.49,-944.185 314.976,-974.276 238.708,-994.318"/>
<polygon fill="none" stroke="black" points="237.456,-991.028 228.674,-996.954 239.235,-997.798 237.456,-991.028"/>
</g>
<!-- \\Tx_PhpParser_Domain_Model_File -->
<g id="node24" class="node"><title>\\Tx_PhpParser_Domain_Model_File</title>
<a xlink:href="Domain.Model.File.html" xlink:title="Tx_PhpParser_Domain_Model_File" target="_parent">
<polygon fill="none" stroke="black" points="1131,-952 913,-952 913,-916 1131,-916 1131,-952"/>
<text text-anchor="middle" x="1022" y="-931.1" font-family="Courier,monospace" font-size="11.00">Tx_PhpParser_Domain_Model_File</text>
</a>
</g>
<!-- \\Tx_PhpParser_Domain_Model_Container -->
<g id="node25" class="node"><title>\\Tx_PhpParser_Domain_Model_Container</title>
<a xlink:href="Domain.Model.Container.html" xlink:title="Tx_PhpParser_Domain_Model_Container" target="_parent">
<polygon fill="none" stroke="black" points="697,-1060 445,-1060 445,-1024 697,-1024 697,-1060"/>
<text text-anchor="middle" x="571" y="-1039.1" font-family="Courier,monospace" font-size="11.00">Tx_PhpParser_Domain_Model_Container</text>
</a>
</g>
<!-- \\Tx_PhpParser_Domain_Model_File&#45;&gt;\\Tx_PhpParser_Domain_Model_Container -->
<g id="edge29" class="edge"><title>\\Tx_PhpParser_Domain_Model_File&#45;&gt;\\Tx_PhpParser_Domain_Model_Container</title>
<path fill="none" stroke="black" d="M912.071,-941.044C887.076,-945.111 861.099,-951.381 838,-961 801.074,-976.378 802.988,-999.772 766,-1015 747.599,-1022.58 727.482,-1028.1 707.381,-1032.12"/>
<polygon fill="none" stroke="black" points="706.703,-1028.68 697.522,-1033.97 707.996,-1035.56 706.703,-1028.68"/>
</g>
<!-- \\Tx_PhpParser_Domain_Model_Container&#45;&gt;\\Tx_PhpParser_Domain_Model_AbstractObject -->
<g id="edge31" class="edge"><title>\\Tx_PhpParser_Domain_Model_Container&#45;&gt;\\Tx_PhpParser_Domain_Model_AbstractObject</title>
<path fill="none" stroke="black" d="M444.333,-1033.68C403.086,-1030.97 356.844,-1027.93 313.832,-1025.11"/>
<polygon fill="none" stroke="black" points="314.052,-1021.61 303.844,-1024.45 313.593,-1028.6 314.052,-1021.61"/>
</g>
<!-- \\Tx_PhpParser_Domain_Model_Namespace -->
<g id="node26" class="node"><title>\\Tx_PhpParser_Domain_Model_Namespace</title>
<a xlink:href="Domain.Model.Namespace.html" xlink:title="Tx_PhpParser_Domain_Model_Namespace" target="_parent">
<polygon fill="none" stroke="black" points="1148,-1168 896,-1168 896,-1132 1148,-1132 1148,-1168"/>
<text text-anchor="middle" x="1022" y="-1147.1" font-family="Courier,monospace" font-size="11.00">Tx_PhpParser_Domain_Model_Namespace</text>
</a>
</g>
<!-- \\Tx_PhpParser_Domain_Model_Namespace&#45;&gt;\\Tx_PhpParser_Domain_Model_Container -->
<g id="edge33" class="edge"><title>\\Tx_PhpParser_Domain_Model_Namespace&#45;&gt;\\Tx_PhpParser_Domain_Model_Container</title>
<path fill="none" stroke="black" d="M895.033,-1139.85C875.491,-1135.89 855.883,-1130.45 838,-1123 801.074,-1107.62 802.988,-1084.23 766,-1069 747.599,-1061.42 727.482,-1055.9 707.381,-1051.88"/>
<polygon fill="none" stroke="black" points="707.996,-1048.44 697.522,-1050.03 706.703,-1055.32 707.996,-1048.44"/>
</g>
<!-- \\Tx_PhpParser_Domain_Model_Class -->
<g id="node27" class="node"><title>\\Tx_PhpParser_Domain_Model_Class</title>
<a xlink:href="Domain.Model.Class.html" xlink:title="Tx_PhpParser_Domain_Model_Class" target="_parent">
<polygon fill="none" stroke="black" points="1135,-1114 909,-1114 909,-1078 1135,-1078 1135,-1114"/>
<text text-anchor="middle" x="1022" y="-1093.1" font-family="Courier,monospace" font-size="11.00">Tx_PhpParser_Domain_Model_Class</text>
</a>
</g>
<!-- \\Tx_PhpParser_Domain_Model_Class&#45;&gt;\\Tx_PhpParser_Domain_Model_Container -->
<g id="edge35" class="edge"><title>\\Tx_PhpParser_Domain_Model_Class&#45;&gt;\\Tx_PhpParser_Domain_Model_Container</title>
<path fill="none" stroke="black" d="M908.776,-1082.44C847.847,-1075.15 772.237,-1066.09 708.009,-1058.4"/>
<polygon fill="none" stroke="black" points="708.148,-1054.9 697.803,-1057.18 707.316,-1061.85 708.148,-1054.9"/>
</g>
</g>
</svg>
